<svg width="400" height="400" viewBox="0 0 400 400" xmlns="http://www.w3.org/2000/svg">
  <rect width="400" height="400" fill="#333" />
  <path d="M200,100 C144.8,100 100,144.8 100,200 C100,244.2 128.7,281.8 168.8,296.3 C175,297.6 177.5,293.8 177.5,290.6 C177.5,287.6 177.3,278.5 177.3,267.4 C150,274.2 142.5,258.7 142.5,258.7 C136.9,242.9 128.7,238.4 128.7,238.4 C117.4,230.9 129.4,231.1 129.4,231.1 C141.7,232 148.1,244.5 148.1,244.5 C159.1,265.7 177.1,259.2 177.8,256.1 C178.4,246.7 182.3,240.3 186.6,236.9 C164.6,233.6 141.5,222.1 141.5,183.8 C141.5,170.5 146.1,159.7 148.4,154.3 C147.6,151.3 143.8,139 151.4,120.1 C151.4,120.1 159.8,116.9 177.3,129.2 C184.6,126.7 192.3,125.4 200,125.4 C207.7,125.4 215.4,126.7 222.7,129.2 C240.2,116.9 248.6,120.1 248.6,120.1 C256.2,139 252.4,151.3 251.6,154.3 C253.9,159.7 258.5,170.5 258.5,183.8 C258.5,222.1 235.4,233.6 213.4,236.9 C218.6,241 223.1,248.8 223.1,261.1 C223.1,278.8 222.9,286.7 222.9,290.6 C222.9,293.8 225.4,297.6 231.6,296.3 C271.7,281.8 300.4,244.2 300.4,200 C300,144.8 255.2,100 200,100 Z" fill="white" />
</svg>
