<svg width="400" height="400" viewBox="0 0 400 400" xmlns="http://www.w3.org/2000/svg">
  <rect width="400" height="400" fill="#d6249f" />
  <radialGradient id="rg" cx="30%" cy="107%" r="150%">
    <stop offset="0%" style="stop-color:#fd5;"/>
    <stop offset="5%" style="stop-color:#fd5"/>
    <stop offset="45%" style="stop-color:#ff543e"/>
    <stop offset="60%" style="stop-color:#c837ab"/>
    <stop offset="90%" style="stop-color:#3771c8"/>
  </radialGradient>
  <rect width="400" height="400" fill="url(#rg)" opacity="0.8" />
  <g fill="white">
    <path d="M250,100 H150 C122.4,100 100,122.4 100,150 V250 C100,277.6 122.4,300 150,300 H250 C277.6,300 300,277.6 300,250 V150 C300,122.4 277.6,100 250,100 Z M280,250 C280,266.5 266.5,280 250,280 H150 C133.5,280 120,266.5 120,250 V150 C120,133.5 133.5,120 150,120 H250 C266.5,120 280,133.5 280,150 V250 Z" />
    <path d="M200,150 C172.4,150 150,172.4 150,200 C150,227.6 172.4,250 200,250 C227.6,250 250,227.6 250,200 C250,172.4 227.6,150 200,150 Z M200,230 C183.5,230 170,216.5 170,200 C170,183.5 183.5,170 200,170 C216.5,170 230,183.5 230,200 C230,216.5 216.5,230 200,230 Z" />
    <circle cx="255" cy="145" r="15" />
  </g>
</svg>
